<?xml version="1.0" encoding="UTF-8"?>
<svg width="1159px" height="493px" viewBox="0 0 1159 493" version="1.1" xmlns="http://www.w3.org/2000/svg" xmlns:xlink="http://www.w3.org/1999/xlink">
    <!-- Generator: Sketch 49.2 (51160) - http://www.bohemiancoding.com/sketch -->
    <title>Logo</title>
    <desc>Created with Sketch.</desc>
    <defs></defs>
    <g id="Thor-Patcher" stroke="none" stroke-width="1" fill="none" fill-rule="evenodd">
        <g id="Logo" transform="translate(0.000000, -4.000000)" fill="#FFFFFF">
            <path d="M110.053978,208.82314 L151.696649,214.178512 C199.883168,220.723967 234.97786,192.757025 234.97786,121.947107 C234.97786,74.3438017 209.397362,29.7198347 139.798743,29.7198347 C116.002931,29.7198347 110.053978,29.7198347 110.053978,95.1743802 L110.053978,208.82314 Z M157.050707,389.707438 C158.835393,394.471901 159.430288,407.56281 157.050707,412.32314 C116.002931,410.538017 107.079501,410.538017 80.309213,410.538017 L1.78303341,410.538017 C-0.596547787,406.37686 -0.596547787,396.852066 1.78303341,392.686777 L13.6809394,389.707438 C42.2359138,383.161983 50.564448,368.290083 50.564448,291.533884 L50.564448,95.1743802 C50.564448,30.314876 44.615495,26.7446281 20.819683,26.7446281 L3.57185053,26.7446281 C1.18813811,23.1743802 0.593242813,7.10826446 3.57185053,4.13305785 C44.615495,5.91818182 53.5389245,5.91818182 80.309213,5.91818182 L169.543508,5.91818182 C247.470661,5.91818182 300.416343,47.5710744 300.416343,118.976033 C300.416343,166.575207 270.076682,214.178512 208.207571,231.434711 C343.8437,324.261157 370.019093,528.352066 644.85659,445.645455 C649.016726,450.996694 650.210648,455.761157 647.23204,459.926446 C299.821447,603.327273 225.463666,287.364463 149.317068,237.980165 C134.444685,235.595868 121.356989,235.004959 110.053978,235.004959 L110.053978,321.28595 C110.053978,386.740496 116.002931,389.707438 139.798743,389.707438 L157.050707,389.707438 Z M370.326869,213.17314 L370.326869,266.735124 C370.326869,299.462397 373.301345,299.462397 385.203382,299.462397 C450.348549,299.462397 458.379635,286.966529 464.031141,265.243388 C466.410722,264.354959 470.872437,265.243388 472.95457,266.735124 C471.467332,281.011983 468.790303,300.95 465.518379,312.255785 C444.697043,311.065702 368.83963,311.367355 355.454486,311.367355 L316.187265,311.367355 C314.997474,309.284711 314.997474,304.520248 316.187265,302.441736 L322.136218,300.95 C336.417836,297.677273 340.582104,290.235124 340.582104,251.850826 L340.582104,153.664876 C340.582104,121.230992 337.607627,119.445868 325.70559,119.445868 L317.079608,119.445868 C315.889817,117.660744 315.59237,109.627686 317.079608,108.140083 C337.607627,109.032645 342.069342,109.032645 355.454486,109.032645 C369.137078,109.032645 435.773614,109.330165 456.594949,108.140083 L461.056664,153.664876 C458.974531,155.152479 454.512816,156.045041 452.133235,155.152479 C446.481729,133.429339 441.722567,120.937603 385.203382,120.937603 C373.301345,120.937603 370.326869,120.937603 370.326869,153.664876 L370.326869,201.272314 C416.732833,201.272314 422.086891,196.214463 426.255289,181.63595 L427.738396,175.681405 C429.82053,174.495455 434.583823,174.495455 436.665957,175.681405 L436.665957,203.057438 C436.665957,216.445868 436.665957,220.908678 437.554169,241.441736 C436.071062,242.925207 428.035844,242.631818 426.255289,241.441736 L426.255289,232.813636 C426.255289,220.908678 425.358815,213.17314 392.639573,213.17314 L370.326869,213.17314 Z M529.842673,109.032231 L648.239231,260.780165 L648.834126,260.780165 L645.85965,153.664463 C644.967307,121.230579 635.147403,119.449587 623.546945,119.449587 L617.895439,119.449587 C616.705649,117.660331 616.408201,109.631405 617.895439,108.139669 C638.419327,109.032231 642.881042,109.032231 656.270317,109.032231 L689.584454,109.032231 C690.778376,111.114876 690.778376,115.875207 689.584454,117.957851 L683.635501,119.449587 C669.060566,123.610744 660.732032,126.58595 660.732032,168.540496 L660.732032,251.854545 C660.732032,272.383471 661.326928,297.67686 662.21927,312.255372 C658.352451,313.747107 653.295841,314.342149 648.834126,314.342149 C641.691251,304.821488 604.510295,256.019835 589.336334,236.978512 L518.539662,147.71405 L517.944767,147.71405 L520.919243,266.734711 C521.811586,299.461983 531.627359,300.949587 543.227817,300.949587 L551.85793,300.949587 C552.746142,303.329752 553.047721,309.875207 551.85793,312.255372 C531.329911,311.366942 526.868196,311.366942 513.483052,311.366942 L477.785203,311.366942 C476.595412,309.284298 476.595412,304.523967 477.785203,302.441322 L483.734156,300.949587 C498.011643,297.67686 506.046861,293.21405 506.046861,251.854545 L506.046861,153.664463 C507.534099,121.230579 497.416748,119.449587 485.816289,119.449587 L477.190307,119.449587 C476.000517,117.660331 475.703069,109.631405 477.190307,108.139669 C498.011643,109.032231 501.585146,109.032231 514.97029,109.032231 L529.842673,109.032231 Z M895.599175,208.710331 C895.599175,270.30124 849.193211,314.33843 789.992866,314.33843 C728.417071,314.33843 685.877926,268.817769 685.877926,211.685537 C685.877926,150.094628 732.288022,106.057438 791.484235,106.057438 C853.06003,106.057438 895.599175,151.582231 895.599175,208.710331 Z M862.875803,213.17314 C862.875803,164.371488 834.618276,117.958264 788.509759,117.958264 C753.109357,117.958264 718.601299,147.119421 718.601299,207.222727 C718.601299,256.020248 746.862957,302.441736 792.971474,302.441736 C828.367744,302.441736 862.875803,273.280579 862.875803,213.17314 Z M1015.19585,238.463223 L1000.61679,277.145041 C996.155072,288.752479 993.77549,296.488017 992.288252,307.19876 C986.041851,312.851653 978.898977,313.446694 970.86789,314.339256 L908.994648,147.715289 C900.067087,125.40124 895.906951,119.446694 883.707466,119.446694 L878.650856,119.446694 C877.461066,117.66157 877.163618,109.628512 878.650856,108.140909 C899.178875,109.033471 903.64059,109.033471 917.025734,109.033471 L958.672536,109.033471 C959.862327,111.116116 959.862327,115.876446 958.672536,117.959091 L952.723583,119.446694 C938.144517,123.016942 934.872593,130.748347 943.205259,153.66157 L988.123985,274.764876 L988.714749,274.764876 L1040.4789,143.252479 C1044.94062,131.645041 1047.3202,123.909504 1048.80744,113.194628 C1055.05384,107.545868 1060.70534,106.950826 1068.74056,106.058264 L1127.6352,272.682231 C1135.67041,295.595455 1141.02447,300.950826 1152.92651,300.950826 L1157.97899,300.950826 C1158.87133,303.32686 1159.16878,309.876446 1157.97899,312.252479 C1137.45097,311.36405 1132.98925,311.36405 1119.60411,311.36405 L1077.96144,311.36405 C1076.77165,309.285537 1076.77165,304.521074 1077.96144,302.43843 L1083.90626,300.950826 C1098.48533,297.380579 1101.75725,289.645041 1093.42872,266.73595 L1083.01805,238.463223 L1015.19585,238.463223 Z M1019.95088,226.562397 L1079.15123,226.562397 L1051.48447,145.632645 L1050.88957,145.632645 L1019.95088,226.562397 Z" id="Combined-Shape"></path>
        </g>
    </g>
</svg>